<svg width="108" height="32" viewBox="0 0 108 32" fill="none" xmlns="http://www.w3.org/2000/svg">
<g clip-path="url(#clip0_7925_13708)">
<path d="M104 32H4C1.8 32 0 30.2 0 28V4C0 1.8 1.8 0 4 0H104C106.2 0 108 1.8 108 4V28C108 30.2 106.2 32 104 32Z" fill="black"/>
<path d="M104 0.64C105.856 0.64 107.36 2.144 107.36 4V28C107.36 29.856 105.856 31.36 104 31.36H4C2.144 31.36 0.64 29.856 0.64 28V4C0.64 2.144 2.144 0.64 4 0.64H104ZM104 0H4C1.8 0 0 1.8 0 4V28C0 30.2 1.8 32 4 32H104C106.2 32 108 30.2 108 28V4C108 1.8 106.2 0 104 0Z" fill="#A6A6A6"/>
<path d="M54.512 17.3996C52.632 17.3996 51.096 18.8316 51.096 20.7996C51.096 22.7596 52.632 24.1996 54.512 24.1996C56.392 24.1996 57.928 22.7596 57.928 20.7996C57.928 18.8316 56.392 17.3996 54.512 17.3996ZM54.512 22.8637C53.48 22.8637 52.592 22.0156 52.592 20.7996C52.592 19.5756 53.48 18.7356 54.512 18.7356C55.544 18.7356 56.432 19.5756 56.432 20.7996C56.432 22.0156 55.536 22.8637 54.512 22.8637ZM47.056 17.3996C45.176 17.3996 43.64 18.8316 43.64 20.7996C43.64 22.7596 45.176 24.1996 47.056 24.1996C48.936 24.1996 50.472 22.7596 50.472 20.7996C50.472 18.8316 48.936 17.3996 47.056 17.3996ZM47.056 22.8637C46.024 22.8637 45.136 22.0156 45.136 20.7996C45.136 19.5756 46.024 18.7356 47.056 18.7356C48.088 18.7356 48.976 19.5756 48.976 20.7996C48.976 22.0156 48.088 22.8637 47.056 22.8637ZM38.192 18.4477V19.8876H41.648C41.544 20.6956 41.272 21.2957 40.864 21.7037C40.36 22.2077 39.576 22.7597 38.2 22.7597C36.072 22.7597 34.408 21.0477 34.408 18.9197C34.408 16.7917 36.072 15.0796 38.2 15.0796C39.344 15.0796 40.184 15.5276 40.8 16.1116L41.816 15.0956C40.952 14.2716 39.808 13.6396 38.192 13.6396C35.28 13.6396 32.832 16.0076 32.832 18.9276C32.832 21.8396 35.28 24.2156 38.192 24.2156C39.768 24.2156 40.952 23.7036 41.88 22.7356C42.832 21.7836 43.128 20.4396 43.128 19.3596C43.128 19.0236 43.104 18.7116 43.048 18.4556H38.192V18.4477ZM74.44 19.5676C74.16 18.8076 73.296 17.3996 71.528 17.3996C69.776 17.3996 68.32 18.7756 68.32 20.7996C68.32 22.7036 69.76 24.1996 71.696 24.1996C73.256 24.1996 74.16 23.2476 74.528 22.6956L73.368 21.9197C72.984 22.4876 72.456 22.8637 71.696 22.8637C70.936 22.8637 70.392 22.5117 70.048 21.8316L74.6 19.9516L74.44 19.5676ZM69.8 20.7036C69.76 19.3917 70.816 18.7197 71.576 18.7197C72.168 18.7197 72.672 19.0156 72.84 19.4396L69.8 20.7036ZM66.104 23.9996H67.6V13.9996H66.104V23.9996ZM63.656 18.1596H63.6C63.264 17.7596 62.624 17.3996 61.808 17.3996C60.104 17.3996 58.544 18.8956 58.544 20.8156C58.544 22.7196 60.104 24.2076 61.808 24.2076C62.616 24.2076 63.264 23.8476 63.6 23.4317H63.648V23.9197C63.648 25.2236 62.952 25.9197 61.832 25.9197C60.92 25.9197 60.352 25.2636 60.12 24.7116L58.816 25.2556C59.192 26.1596 60.184 27.2637 61.832 27.2637C63.584 27.2637 65.064 26.2317 65.064 23.7197V17.6076H63.648V18.1596H63.656ZM61.936 22.8637C60.904 22.8637 60.04 21.9997 60.04 20.8156C60.04 19.6156 60.904 18.7436 61.936 18.7436C62.952 18.7436 63.752 19.6236 63.752 20.8156C63.76 21.9997 62.96 22.8637 61.936 22.8637ZM81.448 13.9996H77.872V23.9996H79.368V20.2076H81.456C83.112 20.2076 84.736 19.0076 84.736 17.1036C84.736 15.1996 83.096 13.9996 81.448 13.9996ZM81.48 18.8156H79.36V15.3836H81.48C82.6 15.3836 83.232 16.3116 83.232 17.0956C83.232 17.8796 82.6 18.8156 81.48 18.8156ZM90.712 17.3836C89.632 17.3836 88.512 17.8636 88.048 18.9116L89.376 19.4637C89.656 18.9117 90.184 18.7276 90.736 18.7276C91.504 18.7276 92.296 19.1916 92.304 20.0156V20.1197C92.032 19.9677 91.456 19.7356 90.744 19.7356C89.312 19.7356 87.864 20.5196 87.864 21.9836C87.864 23.3196 89.032 24.1836 90.344 24.1836C91.344 24.1836 91.904 23.7356 92.248 23.2076H92.296V23.9836H93.736V20.1516C93.744 18.3756 92.416 17.3836 90.712 17.3836ZM90.528 22.8637C90.04 22.8637 89.36 22.6156 89.36 22.0156C89.36 21.2476 90.208 20.9516 90.944 20.9516C91.6 20.9516 91.912 21.0956 92.304 21.2876C92.192 22.2076 91.392 22.8637 90.528 22.8637ZM98.992 17.5996L97.28 21.9356H97.232L95.456 17.5996H93.848L96.512 23.6637L94.992 27.0316H96.552L100.656 17.5996H98.992ZM85.552 23.9996H87.048V13.9996H85.552V23.9996Z" fill="white"/>
<path d="M8.3514 6.03159C8.1194 6.27959 7.9834 6.66359 7.9834 7.15159V24.8476C7.9834 25.3436 8.1194 25.7276 8.3514 25.9676L8.4074 26.0236L18.3194 16.1196V15.9996V15.8796L8.4074 5.97559L8.3514 6.03159Z" fill="url(#paint0_linear_7925_13708)"/>
<path d="M21.6233 19.4242L18.3193 16.1202V16.0002V15.8802L21.6233 12.5762L21.6953 12.6162L25.6073 14.8402C26.7273 15.4722 26.7273 16.5122 25.6073 17.1522L21.6953 19.3762L21.6233 19.4242Z" fill="url(#paint1_linear_7925_13708)"/>
<path d="M21.6956 19.376L18.3196 16L8.35156 25.968C8.71956 26.36 9.32756 26.408 10.0156 26.016L21.6956 19.376Z" fill="url(#paint2_linear_7925_13708)"/>
<path d="M21.6957 12.624L10.0077 5.98399C9.31975 5.59199 8.71175 5.63999 8.34375 6.03199L18.3198 16L21.6957 12.624Z" fill="url(#paint3_linear_7925_13708)"/>
<path opacity="0.2" d="M21.6236 19.3037L10.0076 25.9037C9.35956 26.2717 8.77556 26.2477 8.40756 25.9117L8.35156 25.9677L8.40756 26.0237C8.78356 26.3597 9.35956 26.3837 10.0076 26.0157L21.6956 19.3757L21.6236 19.3037Z" fill="black"/>
<path opacity="0.12" d="M8.3514 25.8554C8.1194 25.6074 7.9834 25.2234 7.9834 24.7354V24.8554C7.9834 25.3514 8.1194 25.7354 8.3514 25.9754L8.4074 25.9194L8.3514 25.8554Z" fill="black"/>
<path opacity="0.12" d="M25.6072 17.04L21.6152 19.304L21.6872 19.376L25.5992 17.152C26.1592 16.832 26.4392 16.416 26.4392 16C26.3992 16.376 26.1192 16.752 25.6072 17.04Z" fill="black"/>
<path opacity="0.25" d="M10.0076 6.09595L25.6076 14.96C26.1116 15.248 26.3996 15.6159 26.4476 15.9999C26.4476 15.584 26.1676 15.1599 25.6076 14.8479L10.0076 5.98395C8.88759 5.35195 7.97559 5.87995 7.97559 7.15995V7.27995C7.97559 5.99195 8.89559 5.46395 10.0076 6.09595Z" fill="white"/>
<path d="M33.0723 10.4006V5.60059H34.5443C35.2803 5.60059 35.8723 5.82459 36.3123 6.26459C36.7523 6.71259 36.9763 7.28859 36.9763 8.00059C36.9763 8.71259 36.7523 9.28859 36.3123 9.73659C35.8643 10.1766 35.2723 10.4006 34.5363 10.4006H33.0723ZM33.6883 9.80859H34.5363C35.0883 9.80859 35.5283 9.64859 35.8563 9.32859C36.1843 9.00859 36.3443 8.56859 36.3443 7.99259C36.3443 7.42459 36.1843 6.98459 35.8563 6.66459C35.5283 6.34459 35.0963 6.18459 34.5363 6.18459H33.6883V9.80859Z" fill="white" stroke="white" stroke-width="0.2" stroke-miterlimit="10"/>
<path d="M37.8398 10.4006V5.60059H38.4558V10.4006H37.8398Z" fill="white" stroke="white" stroke-width="0.2" stroke-miterlimit="10"/>
<path d="M40.9046 10.5043C40.5526 10.5043 40.2166 10.3923 39.8806 10.1603C39.5446 9.92828 39.3286 9.61628 39.2246 9.20028L39.7846 8.97628C39.8486 9.24028 39.9846 9.46428 40.1926 9.64028C40.4006 9.82428 40.6326 9.91228 40.8966 9.91228C41.1606 9.91228 41.3926 9.84028 41.5846 9.70428C41.7766 9.56028 41.8726 9.37628 41.8726 9.12828C41.8726 8.86428 41.7766 8.65628 41.5846 8.51228C41.3926 8.36828 41.0966 8.23228 40.6806 8.10428C40.2566 7.96828 39.9366 7.80028 39.7126 7.58428C39.4966 7.36828 39.3846 7.10428 39.3846 6.76828C39.3846 6.42428 39.5206 6.12828 39.7926 5.87228C40.0646 5.61628 40.4246 5.48828 40.8566 5.48828C41.2646 5.48828 41.5926 5.59228 41.8486 5.79228C42.1046 5.99228 42.2726 6.21628 42.3446 6.45628L41.7846 6.68828C41.7446 6.53628 41.6486 6.39228 41.4886 6.26428C41.3286 6.13628 41.1286 6.07228 40.8726 6.07228C40.6326 6.07228 40.4326 6.13628 40.2646 6.27228C40.0966 6.40828 40.0166 6.56828 40.0166 6.76828C40.0166 6.94428 40.0966 7.09628 40.2486 7.22428C40.4006 7.34428 40.6326 7.45628 40.9286 7.55228C41.1686 7.63228 41.3606 7.70428 41.5206 7.77628C41.6806 7.84828 41.8406 7.94428 42.0006 8.06428C42.1606 8.18428 42.2886 8.32828 42.3686 8.50428C42.4486 8.68028 42.4966 8.88828 42.4966 9.12028C42.4966 9.35228 42.4486 9.56028 42.3526 9.74428C42.2566 9.92828 42.1286 10.0723 41.9686 10.1763C41.8086 10.2803 41.6406 10.3683 41.4566 10.4243C41.2886 10.4803 41.0966 10.5043 40.9046 10.5043Z" fill="white" stroke="white" stroke-width="0.2" stroke-miterlimit="10"/>
<path d="M44.0086 10.4006H43.3926V5.60059H45.0246C45.4326 5.60059 45.7846 5.73659 46.0806 6.00859C46.3766 6.28059 46.5286 6.61659 46.5286 7.03259C46.5286 7.44059 46.3766 7.78459 46.0806 8.05659C45.7846 8.32859 45.4326 8.46459 45.0246 8.46459H44.0086V10.4006ZM44.0086 7.86459H45.0406C45.2966 7.86459 45.5046 7.77659 45.6646 7.60059C45.8246 7.42459 45.8966 7.23259 45.8966 7.02459C45.8966 6.81659 45.8166 6.62459 45.6646 6.44859C45.5046 6.27259 45.2966 6.18459 45.0406 6.18459H44.0086V7.86459Z" fill="white" stroke="white" stroke-width="0.2" stroke-miterlimit="10"/>
<path d="M51.2318 9.77609C50.7598 10.2641 50.1758 10.5041 49.4718 10.5041C48.7678 10.5041 48.1838 10.2641 47.7118 9.77609C47.2398 9.28809 47.0078 8.69609 47.0078 8.00009C47.0078 7.30409 47.2398 6.70409 47.7118 6.22409C48.1838 5.73609 48.7678 5.49609 49.4718 5.49609C50.1678 5.49609 50.7518 5.73609 51.2318 6.22409C51.7038 6.71209 51.9438 7.30409 51.9438 8.00009C51.9438 8.70409 51.7038 9.29609 51.2318 9.77609ZM48.1678 9.37609C48.5198 9.73609 48.9598 9.91209 49.4718 9.91209C49.9838 9.91209 50.4238 9.73609 50.7758 9.37609C51.1278 9.01609 51.3118 8.56009 51.3118 8.00009C51.3118 7.44009 51.1358 6.98409 50.7758 6.62409C50.4238 6.26409 49.9838 6.08809 49.4718 6.08809C48.9598 6.08809 48.5198 6.26409 48.1678 6.62409C47.8158 6.98409 47.6318 7.44009 47.6318 8.00009C47.6318 8.56009 47.8158 9.01609 48.1678 9.37609Z" fill="white" stroke="white" stroke-width="0.2" stroke-miterlimit="10"/>
<path d="M52.8086 10.4006V5.60059H53.5606L55.8966 9.33659H55.9206L55.8966 8.40859V5.60059H56.5126V10.4006H55.8726L53.4326 6.48859H53.4086L53.4326 7.41659V10.4006H52.8086Z" fill="white" stroke="white" stroke-width="0.2" stroke-miterlimit="10"/>
<path d="M57.6084 10.4002V5.60016H58.2244V10.4002H57.6084ZM58.1844 5.22416H57.6484L58.0004 4.36816H58.6724L58.1844 5.22416Z" fill="white" stroke="white" stroke-width="0.2" stroke-miterlimit="10"/>
<path d="M60.5122 10.4006L58.8242 5.60059H59.5042L60.8162 9.49659H60.8402L62.2162 5.60059H62.8962L61.1522 10.4006H60.5122Z" fill="white" stroke="white" stroke-width="0.2" stroke-miterlimit="10"/>
<path d="M66.4006 6.19259H64.2166V7.71259H66.1846V8.28859H64.2166V9.80859H66.4006V10.4006H63.6006V5.60059H66.4006V6.19259Z" fill="white" stroke="white" stroke-width="0.2" stroke-miterlimit="10"/>
<path d="M67.3604 10.4006V5.60059H67.9764V9.80859H70.0564V10.4006H67.3604Z" fill="white" stroke="white" stroke-width="0.2" stroke-miterlimit="10"/>
<path d="M72.4404 10.4006V5.60059H73.1924L75.5284 9.33659H75.5524L75.5284 8.40859V5.60059H76.1444V10.4006H75.5044L73.0644 6.48859H73.0404L73.0644 7.41659V10.4006H72.4404Z" fill="white" stroke="white" stroke-width="0.2" stroke-miterlimit="10"/>
<path d="M81.1683 9.77609C80.6963 10.2641 80.1123 10.5041 79.4083 10.5041C78.7043 10.5041 78.1203 10.2641 77.6483 9.77609C77.1763 9.28809 76.9443 8.69609 76.9443 8.00009C76.9443 7.30409 77.1763 6.70409 77.6483 6.22409C78.1203 5.73609 78.7043 5.49609 79.4083 5.49609C80.1043 5.49609 80.6883 5.73609 81.1683 6.22409C81.6403 6.71209 81.8803 7.30409 81.8803 8.00009C81.8723 8.70409 81.6403 9.29609 81.1683 9.77609ZM78.1043 9.37609C78.4563 9.73609 78.8963 9.91209 79.4083 9.91209C79.9203 9.91209 80.3603 9.73609 80.7123 9.37609C81.0643 9.01609 81.2483 8.56009 81.2483 8.00009C81.2483 7.44009 81.0723 6.98409 80.7123 6.62409C80.3603 6.26409 79.9203 6.08809 79.4083 6.08809C78.8963 6.08809 78.4563 6.26409 78.1043 6.62409C77.7523 6.98409 77.5683 7.44009 77.5683 8.00009C77.5683 8.56009 77.7523 9.01609 78.1043 9.37609Z" fill="white" stroke="white" stroke-width="0.2" stroke-miterlimit="10"/>
</g>
<defs>
<linearGradient id="paint0_linear_7925_13708" x1="17.4392" y1="6.96735" x2="4.01324" y2="20.3933" gradientUnits="userSpaceOnUse">
<stop stop-color="#00A0FF"/>
<stop offset="0.00657445" stop-color="#00A1FF"/>
<stop offset="0.2601" stop-color="#00BEFF"/>
<stop offset="0.5122" stop-color="#00D2FF"/>
<stop offset="0.7604" stop-color="#00DFFF"/>
<stop offset="1" stop-color="#00E3FF"/>
</linearGradient>
<linearGradient id="paint1_linear_7925_13708" x1="27.0669" y1="16.0013" x2="7.70934" y2="16.0013" gradientUnits="userSpaceOnUse">
<stop stop-color="#FFE000"/>
<stop offset="0.4087" stop-color="#FFBD00"/>
<stop offset="0.7754" stop-color="#FFA500"/>
<stop offset="1" stop-color="#FF9C00"/>
</linearGradient>
<linearGradient id="paint2_linear_7925_13708" x1="19.8612" y1="17.8369" x2="1.65452" y2="36.0435" gradientUnits="userSpaceOnUse">
<stop stop-color="#FF3A44"/>
<stop offset="1" stop-color="#C31162"/>
</linearGradient>
<linearGradient id="paint3_linear_7925_13708" x1="5.83759" y1="0.14095" x2="13.9677" y2="8.27095" gradientUnits="userSpaceOnUse">
<stop stop-color="#32A071"/>
<stop offset="0.0685" stop-color="#2DA771"/>
<stop offset="0.4762" stop-color="#15CF74"/>
<stop offset="0.8009" stop-color="#06E775"/>
<stop offset="1" stop-color="#00F076"/>
</linearGradient>
<clipPath id="clip0_7925_13708">
<rect width="108" height="32" fill="white"/>
</clipPath>
</defs>
</svg>
