<svg width="96" height="32" viewBox="0 0 96 32" fill="none" xmlns="http://www.w3.org/2000/svg">
<path d="M88.1078 0.000104H7.62774C7.33438 0.000104 7.04454 0.000104 6.75196 0.001704C6.50704 0.003304 6.26407 0.007952 6.0168 0.011864C5.47961 0.0181854 4.94369 0.065445 4.41368 0.153232C3.88442 0.24293 3.37174 0.412037 2.89298 0.654832C2.4148 0.899681 1.97788 1.21784 1.59806 1.59776C1.21624 1.97661 0.897971 2.41452 0.65548 2.89463C0.41232 3.37379 0.243712 3.88725 0.15548 4.41729C0.0664088 4.94665 0.0184787 5.48212 0.01212 6.01889C0.004696 6.26417 0.003912 6.51026 0 6.75558V25.247C0.003912 25.4954 0.004696 25.736 0.01212 25.9845C0.0184807 26.5212 0.0664107 27.0567 0.15548 27.586C0.243469 28.1164 0.412087 28.6301 0.65548 29.1095C0.89786 29.588 1.21618 30.0242 1.59806 30.4009C1.97644 30.7825 2.41364 31.1009 2.89298 31.3439C3.37173 31.5873 3.88436 31.7574 4.41368 31.8485C4.94378 31.9356 5.47965 31.9829 6.0168 31.9899C6.26407 31.9954 6.50704 31.9985 6.75196 31.9985C7.04454 32.0001 7.3344 32.0001 7.62774 32.0001H88.1078C88.3953 32.0001 88.6875 32.0001 88.975 31.9985C89.2188 31.9985 89.4688 31.9954 89.7125 31.9899C90.2487 31.9832 90.7835 31.936 91.3125 31.8485C91.8436 31.7568 92.358 31.5867 92.8391 31.3439C93.318 31.1007 93.7548 30.7824 94.1329 30.4009C94.5137 30.0227 94.8327 29.5869 95.0781 29.1095C95.3197 28.6298 95.4867 28.1161 95.5734 27.586C95.6626 27.0566 95.7123 26.5213 95.7219 25.9845C95.725 25.736 95.725 25.4954 95.725 25.247C95.7313 24.9563 95.7313 24.6673 95.7313 24.3719V7.62901C95.7313 7.33604 95.7313 7.04541 95.725 6.75558C95.725 6.51026 95.725 6.26417 95.7219 6.01886C95.7123 5.48204 95.6626 4.94669 95.5734 4.41726C95.4865 3.88753 95.3195 3.37411 95.0781 2.8946C94.5843 1.93226 93.8013 1.14892 92.8391 0.65476C92.358 0.412558 91.8435 0.243496 91.3125 0.15316C90.7836 0.0649862 90.2487 0.0177102 89.7125 0.011752C89.4688 0.007848 89.2188 0.00316 88.975 0.0016C88.6875 0 88.3953 0 88.1078 0V0.000104Z" fill="#A6A6A6"/>
<path d="M6.7557 31.3002C6.51195 31.3002 6.2741 31.2971 6.03227 31.2916C5.53129 31.2851 5.03149 31.2415 4.53695 31.1612C4.07583 31.0817 3.62912 30.934 3.21156 30.7228C2.79784 30.5134 2.42048 30.2388 2.09396 29.9096C1.76271 29.5842 1.48694 29.2068 1.27755 28.7924C1.06587 28.3752 0.919364 27.9281 0.843154 27.4666C0.760854 26.9707 0.716326 26.4692 0.709954 25.9666C0.704882 25.7979 0.698242 25.2361 0.698242 25.2361V6.75567C0.698242 6.75567 0.705314 6.20254 0.709994 6.04004C0.716095 5.53818 0.760364 5.03752 0.842418 4.54238C0.918769 4.0796 1.06538 3.63119 1.27719 3.2127C1.4858 2.79855 1.76005 2.42088 2.0893 2.09434C2.41818 1.76469 2.79674 1.48868 3.21117 1.27636C3.62777 1.06587 4.07363 0.919181 4.53383 0.841211C5.02998 0.760064 5.53152 0.716192 6.03423 0.709963L6.75609 0.700195H88.9709L89.7014 0.710355C90.1995 0.716275 90.6965 0.759755 91.1881 0.840427C91.653 0.919375 92.1035 1.06709 92.5248 1.27871C93.3551 1.70658 94.0307 2.38353 94.4568 3.21465C94.6653 3.63026 94.8096 4.075 94.885 4.53379C94.968 5.03299 95.0145 5.53759 95.024 6.04356C95.0264 6.27012 95.0264 6.51348 95.0264 6.75567C95.0327 7.05567 95.0327 7.34121 95.0327 7.6291V24.372C95.0327 24.6627 95.0327 24.9463 95.0264 25.2322C95.0264 25.4924 95.0264 25.7307 95.0232 25.976C95.0139 26.4729 94.9682 26.9685 94.8865 27.4588C94.8119 27.9236 94.6662 28.3742 94.4545 28.7948C94.2437 29.2047 93.9695 29.5788 93.642 29.9033C93.3152 30.2343 92.9372 30.5106 92.5225 30.7213C92.1023 30.9341 91.6525 31.0824 91.1881 31.1612C90.6936 31.2419 90.1938 31.2855 89.6928 31.2916C89.4585 31.2971 89.2131 31.3002 88.9748 31.3002L88.1077 31.3018L6.7557 31.3002Z" fill="black"/>
<path d="M19.8154 16.2408C19.824 15.5731 20.0014 14.9184 20.331 14.3377C20.6606 13.7569 21.1318 13.2689 21.7006 12.9192C21.3392 12.4031 20.8625 11.9783 20.3082 11.6787C19.754 11.379 19.1375 11.2128 18.5077 11.1931C17.1643 11.052 15.862 11.9969 15.1774 11.9969C14.4796 11.9969 13.4256 11.2071 12.2906 11.2304C11.5564 11.2541 10.841 11.4676 10.2139 11.8501C9.58677 12.2325 9.06943 12.7709 8.71225 13.4127C7.16505 16.0914 8.31912 20.0283 9.80121 22.1936C10.5427 23.2538 11.4094 24.4382 12.5433 24.3962C13.653 24.3502 14.0674 23.6886 15.4068 23.6886C16.7338 23.6886 17.1227 24.3962 18.2796 24.3695C19.4703 24.3502 20.2205 23.3045 20.936 22.2342C21.4688 21.4787 21.8788 20.6437 22.1508 19.7602C21.459 19.4676 20.8687 18.9779 20.4534 18.352C20.0381 17.7262 19.8162 16.9919 19.8154 16.2408Z" fill="white"/>
<path d="M17.6304 9.76906C18.2797 8.98969 18.5995 7.98795 18.5221 6.97656C17.5302 7.08074 16.614 7.55479 15.956 8.30425C15.6343 8.67038 15.3879 9.09633 15.2309 9.55775C15.0739 10.0192 15.0094 10.507 15.041 10.9934C15.5371 10.9985 16.0279 10.8909 16.4765 10.6789C16.925 10.4668 17.3196 10.1557 17.6304 9.76906Z" fill="white"/>
<path d="M33.842 21.7121H30.0553L29.1459 24.3973H27.542L31.1287 14.4629H32.7951L36.3818 24.3973H34.7506L33.842 21.7121ZM30.4475 20.4731H33.4491L31.9694 16.1153H31.928L30.4475 20.4731Z" fill="white"/>
<path d="M44.1283 20.7761C44.1283 23.0269 42.9237 24.473 41.1057 24.473C40.6452 24.4971 40.1872 24.391 39.7841 24.1669C39.3811 23.9428 39.0493 23.6097 38.8268 23.2058H38.7924V26.7933H37.3057V17.1543H38.7448V18.359H38.7721C39.0049 17.957 39.3422 17.6256 39.7483 17.4002C40.1544 17.1747 40.6141 17.0635 41.0783 17.0785C42.9166 17.0785 44.1283 18.5316 44.1283 20.7761ZM42.6002 20.7761C42.6002 19.3097 41.8424 18.3457 40.6861 18.3457C39.5502 18.3457 38.7862 19.3301 38.7862 20.7761C38.7862 22.2355 39.5502 23.2129 40.6861 23.2129C41.8424 23.2129 42.6002 22.2558 42.6002 20.7761Z" fill="white"/>
<path d="M52.1 20.7761C52.1 23.0269 50.8953 24.473 49.0774 24.473C48.6168 24.4971 48.1588 24.391 47.7558 24.1669C47.3528 23.9428 47.021 23.6097 46.7985 23.2058H46.7641V26.7933H45.2773V17.1543H46.7164V18.3589H46.7437C46.9765 17.957 47.3139 17.6256 47.72 17.4002C48.1261 17.1747 48.5857 17.0635 49.05 17.0785C50.8883 17.0785 52.1 18.5316 52.1 20.7761ZM50.5719 20.7761C50.5719 19.3097 49.8141 18.3457 48.6578 18.3457C47.5219 18.3457 46.7578 19.33 46.7578 20.7761C46.7578 22.2355 47.5219 23.2129 48.6578 23.2129C49.8141 23.2129 50.5719 22.2558 50.5719 20.7761H50.5719Z" fill="white"/>
<path d="M57.3686 21.6289C57.4787 22.6141 58.4358 23.2609 59.7436 23.2609C60.9967 23.2609 61.8983 22.6141 61.8983 21.7258C61.8983 20.9547 61.3545 20.493 60.067 20.1766L58.7795 19.8664C56.9553 19.4258 56.1084 18.5727 56.1084 17.1883C56.1084 15.4742 57.6022 14.2969 59.7233 14.2969C61.8225 14.2969 63.2615 15.4742 63.31 17.1883H61.8092C61.7193 16.1969 60.8998 15.5984 59.7022 15.5984C58.5045 15.5984 57.685 16.2039 57.685 17.0852C57.685 17.7875 58.2084 18.2008 59.4889 18.5172L60.5834 18.7859C62.6217 19.2679 63.4686 20.0867 63.4686 21.5398C63.4686 23.3984 61.9881 24.5625 59.6334 24.5625C57.4303 24.5625 55.9428 23.4258 55.8467 21.6289L57.3686 21.6289Z" fill="white"/>
<path d="M66.6767 15.4395V17.1535H68.0541V18.3309H66.6767V22.3238C66.6767 22.9441 66.9525 23.2332 67.558 23.2332C67.7215 23.2304 67.8848 23.2189 68.0471 23.1988V24.3691C67.7748 24.42 67.4982 24.443 67.2213 24.4379C65.7549 24.4379 65.183 23.8871 65.183 22.4824V18.3309H64.1299V17.1535H65.183V15.4395H66.6767Z" fill="white"/>
<path d="M68.8525 20.7754C68.8525 18.4965 70.1947 17.0645 72.2877 17.0645C74.3877 17.0645 75.7236 18.4965 75.7236 20.7754C75.7236 23.0605 74.3947 24.4863 72.2877 24.4863C70.1814 24.4863 68.8525 23.0605 68.8525 20.7754ZM74.2088 20.7754C74.2088 19.2121 73.4924 18.2895 72.2877 18.2895C71.083 18.2895 70.3674 19.2191 70.3674 20.7754C70.3674 22.3449 71.083 23.2605 72.2877 23.2605C73.4924 23.2605 74.2088 22.3449 74.2088 20.7754H74.2088Z" fill="white"/>
<path d="M76.9492 17.1542H78.3672V18.387H78.4016C78.4975 18.002 78.7231 17.6617 79.0404 17.4234C79.3576 17.1851 79.7473 17.0633 80.1438 17.0784C80.3151 17.0778 80.486 17.0964 80.6532 17.1339V18.5245C80.4369 18.4584 80.2112 18.4281 79.9852 18.4347C79.7692 18.4259 79.5539 18.464 79.354 18.5463C79.1541 18.6286 78.9744 18.7532 78.8272 18.9115C78.6801 19.0698 78.5689 19.2581 78.5013 19.4634C78.4338 19.6688 78.4115 19.8863 78.4359 20.1011V24.3972H76.9492L76.9492 17.1542Z" fill="white"/>
<path d="M87.5072 22.2691C87.3072 23.584 86.0268 24.4863 84.3885 24.4863C82.2814 24.4863 80.9736 23.0746 80.9736 20.8098C80.9736 18.5379 82.2885 17.0645 84.326 17.0645C86.3299 17.0645 87.59 18.441 87.59 20.6371V21.1465H82.4744V21.2363C82.4508 21.5029 82.4842 21.7714 82.5723 22.0241C82.6605 22.2768 82.8014 22.5078 82.9856 22.7018C83.1699 22.8959 83.3934 23.0485 83.6412 23.1495C83.889 23.2506 84.1554 23.2977 84.4229 23.2879C84.7742 23.3208 85.1268 23.2394 85.4281 23.0559C85.7295 22.8723 85.9636 22.5964 86.0955 22.2691L87.5072 22.2691ZM82.4814 20.1074H86.1025C86.1159 19.8677 86.0795 19.6279 85.9958 19.4029C85.9121 19.178 85.7827 18.9727 85.6159 18.8001C85.4491 18.6275 85.2484 18.4912 85.0264 18.3999C84.8044 18.3085 84.566 18.264 84.326 18.2691C84.0839 18.2677 83.8439 18.3142 83.6198 18.406C83.3958 18.4978 83.1922 18.6331 83.0207 18.804C82.8492 18.9749 82.7133 19.178 82.6207 19.4018C82.5281 19.6255 82.4808 19.8653 82.4814 20.1074V20.1074Z" fill="white"/>
<path d="M28.5371 11.7578V6.98438H30.4559C31.3527 6.98438 31.8918 7.44062 31.8918 8.175C31.892 8.41624 31.8088 8.65014 31.6563 8.83708C31.5038 9.02402 31.2914 9.15251 31.0551 9.20078V9.25703C31.3483 9.2709 31.6247 9.39852 31.8254 9.6128C32.0261 9.82708 32.1354 10.1111 32.1301 10.4047C32.1301 11.2449 31.5184 11.7578 30.4988 11.7578L28.5371 11.7578ZM29.2785 9.00543H30.1582C30.8137 9.00543 31.1543 8.76402 31.1543 8.3109C31.1543 7.87067 30.8332 7.61285 30.284 7.61285H29.2785V9.00543ZM30.3504 11.1293C31.0184 11.1293 31.3723 10.8578 31.3723 10.3519C31.3723 9.85231 31.0051 9.59098 30.3074 9.59098H29.2785V11.1293H30.3504Z" fill="white"/>
<path d="M32.8916 10.7391C32.8916 10.0906 33.3744 9.71679 34.2314 9.66367L35.2072 9.60742V9.29648C35.2072 8.91601 34.9557 8.70117 34.4697 8.70117C34.0729 8.70117 33.7979 8.84687 33.7189 9.10156H33.0307C33.1033 8.48281 33.6854 8.08594 34.5025 8.08594C35.4057 8.08594 35.915 8.53554 35.915 9.29648V11.7578H35.2307V11.2516H35.1744C35.0602 11.4332 34.8999 11.5812 34.7098 11.6806C34.5197 11.7799 34.3067 11.8271 34.0924 11.8172C33.9412 11.8329 33.7883 11.8168 33.6437 11.7698C33.4991 11.7228 33.3659 11.6461 33.2528 11.5445C33.1397 11.4429 33.0491 11.3188 32.9869 11.1801C32.9246 11.0413 32.8922 10.8911 32.8916 10.7391ZM35.2072 10.4312V10.1301L34.3275 10.1863C33.8314 10.2195 33.6064 10.3883 33.6064 10.7058C33.6064 11.0301 33.8877 11.2187 34.2744 11.2187C34.3878 11.2302 34.5022 11.2188 34.611 11.1851C34.7198 11.1514 34.8207 11.0962 34.9078 11.0227C34.9948 10.9493 35.0662 10.859 35.1176 10.7574C35.1691 10.6558 35.1995 10.5449 35.2072 10.4312Z" fill="white"/>
<path d="M36.9354 7.09049C36.9299 6.99841 36.9522 6.90681 36.9994 6.82754C37.0466 6.74828 37.1164 6.68501 37.2 6.64592C37.2836 6.60684 37.3769 6.59375 37.468 6.60834C37.5591 6.62293 37.6437 6.66453 37.7109 6.72776C37.778 6.79099 37.8246 6.87293 37.8447 6.96297C37.8648 7.053 37.8573 7.14699 37.8233 7.23275C37.7894 7.31851 37.7304 7.39209 37.6542 7.44396C37.5779 7.49584 37.4878 7.52361 37.3955 7.52369C37.3366 7.5267 37.2776 7.51775 37.2222 7.49739C37.1668 7.47703 37.1161 7.44567 37.0731 7.40521C37.0301 7.36474 36.9958 7.316 36.9721 7.26192C36.9484 7.20783 36.9359 7.14952 36.9354 7.09049ZM37.0409 8.15572H37.7494V11.7581H37.0408L37.0409 8.15572Z" fill="white"/>
<path d="M40.1894 10.4807L39.402 11.7576H38.6215L39.816 9.96465L38.6113 8.15527H39.4418L40.216 9.42559H40.2723L41.0395 8.15527H41.8301L40.6426 9.93496L41.8434 11.7576H41.0269L40.2426 10.4807H40.1894Z" fill="white"/>
<path d="M42.4707 10.7391C42.4707 10.0906 42.9535 9.71679 43.8105 9.66367L44.7863 9.60742V9.29648C44.7863 8.91601 44.5348 8.70117 44.0488 8.70117C43.652 8.70117 43.377 8.84687 43.298 9.10156H42.6098C42.6824 8.48281 43.2645 8.08594 44.0816 8.08594C44.9848 8.08594 45.4941 8.53554 45.4941 9.29648V11.7578H44.8098V11.2516H44.7535C44.6393 11.4332 44.479 11.5812 44.2889 11.6806C44.0988 11.7799 43.8858 11.8271 43.6715 11.8172C43.5203 11.8329 43.3674 11.8168 43.2228 11.7698C43.0782 11.7228 42.945 11.6461 42.8319 11.5445C42.7188 11.4429 42.6282 11.3188 42.566 11.1801C42.5037 11.0413 42.4713 10.8911 42.4707 10.7391ZM44.7863 10.4312V10.1301L43.9066 10.1863C43.4105 10.2195 43.1855 10.3883 43.1855 10.7058C43.1855 11.0301 43.4668 11.2187 43.8535 11.2187C43.9669 11.2302 44.0813 11.2188 44.1901 11.1851C44.2989 11.1514 44.3999 11.0962 44.4869 11.0227C44.5739 10.9493 44.6453 10.859 44.6967 10.7574C44.7482 10.6558 44.7786 10.5449 44.7863 10.4312Z" fill="white"/>
<path d="M46.6074 8.15573H47.2918V8.70807H47.3449C47.4215 8.51633 47.557 8.3538 47.7317 8.24383C47.9065 8.13385 48.1116 8.08208 48.3176 8.09596C48.4241 8.09453 48.5304 8.10448 48.6348 8.12565V8.82725C48.5043 8.79937 48.3713 8.78497 48.2379 8.78428C48.1206 8.77375 48.0025 8.78787 47.891 8.82572C47.7795 8.86358 47.6772 8.92433 47.5906 9.00409C47.504 9.08385 47.435 9.18084 47.3882 9.28883C47.3413 9.39682 47.3175 9.51342 47.3184 9.63115V11.7581H46.6074L46.6074 8.15573Z" fill="white"/>
<path d="M51.375 8.15609H52.0598V8.72835H52.1129C52.2031 8.52282 52.3551 8.35052 52.5478 8.23548C52.7405 8.12043 52.9642 8.06837 53.1879 8.08655C53.3632 8.07338 53.5392 8.0998 53.7029 8.16388C53.8666 8.22796 54.0137 8.32804 54.1335 8.45672C54.2532 8.58539 54.3425 8.73936 54.3946 8.90722C54.4468 9.07507 54.4605 9.25251 54.4348 9.42639V11.7584H53.7239V9.60492C53.7239 9.02602 53.4723 8.73812 52.9465 8.73812C52.8275 8.73258 52.7087 8.75283 52.5983 8.7975C52.4878 8.84216 52.3883 8.91018 52.3066 8.99689C52.2249 9.0836 52.163 9.18694 52.1249 9.29985C52.0869 9.41275 52.0738 9.53254 52.0864 9.65101V11.7584H51.375L51.375 8.15609Z" fill="white"/>
<path d="M55.3291 10.7391C55.3291 10.0906 55.8119 9.71679 56.6689 9.66367L57.6447 9.60742V9.29648C57.6447 8.91601 57.3932 8.70117 56.9072 8.70117C56.5104 8.70117 56.2354 8.84687 56.1564 9.10156H55.4682C55.5408 8.48281 56.1229 8.08594 56.94 8.08594C57.8432 8.08594 58.3525 8.53554 58.3525 9.29648V11.7578H57.6682V11.2516H57.6119C57.4977 11.4332 57.3374 11.5812 57.1473 11.6806C56.9572 11.7799 56.7442 11.8271 56.5299 11.8172C56.3787 11.8329 56.2258 11.8168 56.0812 11.7698C55.9366 11.7228 55.8034 11.6461 55.6903 11.5445C55.5772 11.4429 55.4866 11.3188 55.4244 11.1801C55.3621 11.0413 55.3297 10.8911 55.3291 10.7391ZM57.6447 10.4312V10.1301L56.765 10.1863C56.2689 10.2195 56.0439 10.3883 56.0439 10.7058C56.0439 11.0301 56.3252 11.2187 56.7119 11.2187C56.8253 11.2302 56.9397 11.2188 57.0485 11.1851C57.1573 11.1514 57.2583 11.0962 57.3453 11.0227C57.4323 10.9493 57.5037 10.859 57.5551 10.7574C57.6066 10.6558 57.637 10.5449 57.6447 10.4312H57.6447Z" fill="white"/>
</svg>
